<?xml version="1.0" standalone="no"?>
<!DOCTYPE svg PUBLIC "-//W3C//DTD SVG 20010904//EN"
 "http://www.w3.org/TR/2001/REC-SVG-20010904/DTD/svg10.dtd">
<svg version="1.0" xmlns="http://www.w3.org/2000/svg"
 width="188.000000pt" height="188.000000pt" viewBox="0 0 188.000000 188.000000"
 preserveAspectRatio="xMidYMid meet">
<metadata>
Created by potrace 1.11, written by Peter Selinger 2001-2013
</metadata>
<g transform="translate(0.000000,188.000000) scale(0.100000,-0.100000)"
fill="#000000" stroke="none">
<path d="M1368 1455 c-57 -8 -106 -22 -140 -41 -29 -15 -73 -38 -96 -50 -24
-12 -54 -32 -67 -44 -19 -18 -27 -20 -45 -10 -11 6 -34 9 -49 5 -24 -5 -29 -2
-35 18 -3 14 -13 28 -22 31 -30 12 -43 -12 -42 -78 1 -65 -10 -93 -61 -148
-30 -34 -49 -36 -53 -5 -2 16 -10 22 -29 22 -16 0 -34 10 -45 23 -26 31 -54
20 -54 -20 0 -24 -3 -28 -19 -23 -14 4 -23 -1 -31 -16 -9 -16 -14 -18 -20 -9
-13 20 -117 23 -128 4 -8 -14 -12 -14 -30 -3 -12 8 -22 19 -22 26 0 23 -40 14
-51 -11 -9 -20 -8 -27 10 -45 11 -11 30 -20 42 -18 16 1 26 -7 38 -31 13 -27
21 -32 46 -30 23 2 30 -2 33 -17 2 -11 19 -36 38 -56 45 -46 32 -59 -13 -14
-40 40 -49 43 -58 15 -14 -45 33 -93 71 -72 20 11 33 2 51 -39 7 -16 8 -31 2
-42 -7 -12 -4 -25 12 -47 27 -35 33 -36 83 -10 l39 19 38 -32 c21 -17 53 -44
71 -60 18 -15 50 -30 71 -34 20 -3 40 -10 43 -14 3 -5 23 -9 44 -9 33 0 43 6
73 42 l36 43 38 -22 39 -22 60 24 c105 44 107 43 359 -135 39 -27 79 -49 91
-50 40 0 57 80 30 143 -24 56 -50 72 -125 73 l-66 1 -3 39 c-2 26 5 50 18 72
l20 33 73 -6 c103 -9 119 2 132 87 6 37 13 70 18 74 12 12 8 41 -8 54 -25 21
-30 96 -10 155 18 51 18 55 1 99 -19 50 -51 79 -131 119 -48 23 -154 58 -172
56 -4 -1 -47 -7 -95 -14z m-218 -150 c0 -8 -11 -17 -25 -21 -37 -9 -42 2 -8
20 35 19 33 19 33 1z m-220 -96 c0 -5 -14 -32 -32 -59 -37 -57 -90 -92 -110
-72 -9 9 -8 12 8 12 26 0 57 29 90 85 25 43 44 58 44 34z m-260 -199 c0 -12
-28 -25 -36 -17 -9 9 6 27 22 27 8 0 14 -5 14 -10z m-2 -139 c3 -8 -1 -12 -9
-9 -7 2 -15 10 -17 17 -3 8 1 12 9 9 7 -2 15 -10 17 -17z m82 -20 c0 -5 -12
-16 -26 -26 -20 -13 -29 -14 -38 -5 -8 8 -6 15 8 26 22 16 56 19 56 5z m234
-146 c-6 -16 -44 -21 -44 -7 0 14 12 22 31 22 12 0 16 -5 13 -15z"/>
<path d="M960 1417 c0 -30 26 -49 60 -45 27 2 36 8 38 24 3 18 -4 22 -35 27
-54 9 -63 9 -63 -6z"/>
<path d="M220 1079 c-8 -5 -28 -9 -43 -9 -23 0 -28 -4 -25 -21 5 -34 30 -45
67 -29 22 9 31 19 31 36 0 27 -11 36 -30 23z"/>
<path d="M302 1028 c-15 -15 -15 -51 0 -66 17 -17 53 -15 68 3 10 12 7 20 -18
45 -35 34 -34 34 -50 18z"/>
<path d="M197 933 c-4 -3 -7 -25 -7 -47 0 -35 4 -43 27 -53 37 -18 44 -17 76
13 33 30 31 49 -6 49 -16 1 -34 10 -43 23 -15 22 -35 28 -47 15z"/>
<path d="M386 893 c-30 -32 -31 -35 -12 -72 12 -23 22 -28 55 -29 46 -2 55 16
24 50 -9 11 -17 31 -18 45 0 37 -19 39 -49 6z"/>
<path d="M52 823 c2 -19 12 -32 32 -42 34 -16 59 -6 64 28 3 17 -2 21 -22 21
-14 0 -28 5 -31 10 -3 6 -15 10 -26 10 -16 0 -20 -6 -17 -27z"/>
</g>
</svg>
