<?xml version="1.0" standalone="no"?>
<!DOCTYPE svg PUBLIC "-//W3C//DTD SVG 20010904//EN"
 "http://www.w3.org/TR/2001/REC-SVG-20010904/DTD/svg10.dtd">
<svg version="1.0" xmlns="http://www.w3.org/2000/svg"
 width="700.000000pt" height="700.000000pt" viewBox="0 0 700.000000 700.000000"
 preserveAspectRatio="xMidYMid meet">
<metadata>
Created by potrace 1.11, written by Peter Selinger 2001-2013
</metadata>
<g transform="translate(0.000000,700.000000) scale(0.100000,-0.100000)"
fill="#000000" stroke="none">
<path d="M3345 6989 c-190 -34 -342 -99 -502 -215 -19 -13 -30 -14 -75 -4
-307 65 -631 -1 -869 -180 -83 -62 -193 -174 -244 -249 l-47 -68 -75 -17
c-252 -55 -491 -220 -637 -439 -72 -108 -143 -274 -162 -378 -4 -24 -9 -47
-10 -51 -1 -5 -2 -20 -3 -35 -1 -22 -13 -35 -49 -58 -53 -33 -55 -35 -134
-102 -158 -134 -308 -376 -334 -538 -3 -16 -10 -48 -16 -70 -17 -62 -18 -288
-2 -382 l14 -82 -33 -53 c-51 -79 -73 -125 -107 -226 -44 -130 -59 -227 -55
-367 5 -217 60 -390 182 -573 l54 -82 -10 -53 c-21 -103 -23 -123 -25 -215 -8
-353 150 -672 439 -884 74 -55 80 -62 92 -111 53 -216 145 -387 282 -526 149
-149 351 -256 565 -298 l92 -18 45 -69 c87 -137 259 -287 417 -366 204 -101
448 -133 680 -90 55 11 65 10 81 -4 10 -9 20 -16 23 -16 3 0 31 -15 63 -34 72
-44 206 -92 316 -115 88 -18 287 -22 374 -7 65 12 199 54 272 87 68 30 209
120 250 158 14 13 30 18 45 15 182 -39 364 -39 574 0 54 10 167 47 230 76 170
76 328 230 430 415 7 13 41 30 95 47 46 15 93 32 104 37 11 5 47 21 80 36 82
37 180 104 238 162 132 131 257 388 281 578 4 30 13 54 23 60 59 37 177 131
227 181 240 242 377 661 327 1000 l-10 71 39 78 c83 166 120 329 115 510 -5
214 -62 393 -182 574 l-56 83 11 52 c20 92 24 134 24 238 0 118 -5 156 -35
284 -51 213 -228 461 -427 597 l-55 37 -24 92 c-13 51 -27 99 -31 108 -4 8
-23 48 -41 89 -97 213 -267 385 -484 492 -118 58 -278 106 -362 109 -6 0 -22
17 -34 38 -121 199 -319 363 -544 447 -159 60 -377 79 -553 49 -68 -12 -87
-12 -99 -2 -68 56 -275 144 -399 168 -76 15 -295 20 -359 9z"/>
</g>
</svg>
